<?xml version="1.0" standalone="no"?>
<!DOCTYPE svg PUBLIC "-//W3C//DTD SVG 20010904//EN"
 "http://www.w3.org/TR/2001/REC-SVG-20010904/DTD/svg10.dtd">
<svg version="1.0" xmlns="http://www.w3.org/2000/svg"
 width="263.000000pt" height="263.000000pt" viewBox="0 0 263.000000 263.000000"
 preserveAspectRatio="xMidYMid meet">
<metadata>
Created by potrace 1.11, written by Peter Selinger 2001-2013
</metadata>
<g transform="translate(0.000000,263.000000) scale(0.100000,-0.100000)"
fill="#000000" stroke="none">
<path d="M10 2185 l0 -205 1192 0 1192 0 -30 32 c-144 156 -261 239 -434 308
-65 27 -99 36 -205 55 -66 12 -219 15 -897 15 l-818 0 0 -205z"/>
<path d="M530 1330 l0 -220 1035 0 c977 0 1036 1 1043 18 10 23 9 338 -1 385
l-8 37 -1034 0 -1035 0 0 -220z"/>
<path d="M530 465 l0 -215 563 0 c595 0 641 3 787 49 163 53 358 180 461 302
25 30 49 60 53 67 6 9 -183 12 -928 12 l-936 0 0 -215z"/>
</g>
</svg>
